<svg id="Layer_1" data-name="Layer 1" xmlns="http://www.w3.org/2000/svg" xmlns:xlink="http://www.w3.org/1999/xlink" viewBox="0 0 211 136"><title>Hexapod Mantis</title>
<desc>Hexapod Symbol Color</desc>
<metadata><?xpacket begin="﻿" id="W5M0MpCehiHzreSzNTczkc9d"?>
<x:xmpmeta xmlns:x="adobe:ns:meta/" x:xmptk="Adobe XMP Core 7.1-c000 79.4d2f597, 2021/09/01-20:51:22        ">
   <rdf:RDF xmlns:rdf="http://www.w3.org/1999/02/22-rdf-syntax-ns#">
      <rdf:Description rdf:about=""
            xmlns:photoshop="http://ns.adobe.com/photoshop/1.0/"
            xmlns:xmpRights="http://ns.adobe.com/xap/1.0/rights/"
            xmlns:xmp="http://ns.adobe.com/xap/1.0/"
            xmlns:xmpMM="http://ns.adobe.com/xap/1.0/mm/"
            xmlns:stEvt="http://ns.adobe.com/xap/1.0/sType/ResourceEvent#"
            xmlns:dc="http://purl.org/dc/elements/1.1/">
         <photoshop:AuthorsPosition>BBF Corporate Messaging</photoshop:AuthorsPosition>
         <photoshop:CaptionWriter>BBF Corporate Messaging</photoshop:CaptionWriter>
         <xmpRights:Marked>True</xmpRights:Marked>
         <xmpRights:WebStatement>www.bbf.ch</xmpRights:WebStatement>
         <xmp:MetadataDate>2022-02-28T16:30:26+01:00</xmp:MetadataDate>
         <xmpMM:InstanceID>xmp.iid:335e112b-e77d-4bc9-8ee3-b04dd7212893</xmpMM:InstanceID>
         <xmpMM:DocumentID>xmp.did:953afc27-c122-4d75-acf1-eb8fa95e5716</xmpMM:DocumentID>
         <xmpMM:OriginalDocumentID>xmp.did:953afc27-c122-4d75-acf1-eb8fa95e5716</xmpMM:OriginalDocumentID>
         <xmpMM:History>
            <rdf:Seq>
               <rdf:li>
                  <rdf:Description>
                     <stEvt:action>saved</stEvt:action>
                     <stEvt:instanceID>xmp.iid:953afc27-c122-4d75-acf1-eb8fa95e5716</stEvt:instanceID>
                     <stEvt:when>2022-02-28T16:27:33+01:00</stEvt:when>
                     <stEvt:softwareAgent>Adobe Bridge 2022 (Macintosh)</stEvt:softwareAgent>
                     <stEvt:changed>/metadata</stEvt:changed>
                  </rdf:Description>
               </rdf:li>
               <rdf:li>
                  <rdf:Description>
                     <stEvt:action>saved</stEvt:action>
                     <stEvt:instanceID>xmp.iid:335e112b-e77d-4bc9-8ee3-b04dd7212893</stEvt:instanceID>
                     <stEvt:when>2022-02-28T16:30:26+01:00</stEvt:when>
                     <stEvt:softwareAgent>Adobe Bridge 2022 (Macintosh)</stEvt:softwareAgent>
                     <stEvt:changed>/metadata</stEvt:changed>
                  </rdf:Description>
               </rdf:li>
            </rdf:Seq>
         </xmpMM:History>
         <dc:creator>
            <rdf:Seq>
               <rdf:li>BBF Corporate Messaging</rdf:li>
            </rdf:Seq>
         </dc:creator>
         <dc:description>
            <rdf:Alt>
               <rdf:li xml:lang="x-default">Hexapod Symbol Color</rdf:li>
            </rdf:Alt>
         </dc:description>
         <dc:rights>
            <rdf:Alt>
               <rdf:li xml:lang="x-default">BBF&#xD;Schifflände 26&#xD;8001 Zürich</rdf:li>
            </rdf:Alt>
         </dc:rights>
         <dc:subject>
            <rdf:Bag>
               <rdf:li>Hexapod Symbol Color</rdf:li>
            </rdf:Bag>
         </dc:subject>
         <dc:title>
            <rdf:Alt>
               <rdf:li xml:lang="x-default">Hexapod Mantis</rdf:li>
            </rdf:Alt>
         </dc:title>
      </rdf:Description>
   </rdf:RDF>
</x:xmpmeta>
                                                                                                    
                                                                                                    
                                                                                                    
                                                                                                    
                                                                                                    
                                                                                                    
                                                                                                    
                                                                                                    
                                                                                                    
                                                                                                    
                                                                                                    
                                                                                                    
                                                                                                    
                                                                       
<?xpacket end="w"?></metadata>
<defs><style>.cls-1{fill:url(#New_Gradient_Swatch_1);}</style><linearGradient id="New_Gradient_Swatch_1" x1="2.36" y1="68" x2="210.33" y2="68" gradientUnits="userSpaceOnUse"><stop offset="0" stop-color="#ffae28"/><stop offset="1" stop-color="#95ac47"/></linearGradient></defs><path class="cls-1" d="M162,12.62h48.31V11.08A10.45,10.45,0,0,0,199.88.62H162c-27,0-49,21.59-49,48.13,0,6.32,0,1.85,0,5.14H99.68c0-3.29,0,1.18,0-5.14,0-26.54-22-48.13-49-48.13H2.36V1.68A10.94,10.94,0,0,0,13.3,12.62H50.68c20.38,0,37,16.22,37,36.15,0,6.83,0,2.25,0,5.12H83.34A26,26,0,1,0,62.47,95.52h.16L70.88,102a18.86,18.86,0,0,0,12,33.42v-12a6.86,6.86,0,0,1-1.8-13.48l5.86,4.57a31.52,31.52,0,0,0,38.88,0l5.78-4.5a6.86,6.86,0,0,1-2.05,13.41v12a18.85,18.85,0,0,0,12.13-33.28l8.42-6.58a26,26,0,1,0-20.9-41.63H125c0-2.87,0,1.71,0-5.12C125,28.84,141.64,12.62,162,12.62ZM62.47,55.43a14,14,0,0,1,1.4,28h-.08a13,13,0,0,1-1.32.06,14,14,0,0,1,0-28.09Zm56,49.59a19.58,19.58,0,0,1-24.12,0L76.73,91.3a1.7,1.7,0,0,0,.22-.15c.3-.2.6-.4.89-.62l.34-.25c.36-.27.71-.54,1-.83l.07-.06c.36-.3.72-.62,1.06-1l.29-.28c.26-.25.51-.51.76-.77l.27-.29c.32-.35.64-.7.94-1.07l.08-.11c.27-.33.54-.68.79-1l.25-.35c.21-.3.41-.6.61-.91l.2-.3q.38-.6.72-1.23c0-.08.09-.16.13-.24q.28-.51.54-1.05l.18-.39c.16-.35.31-.7.46-1.06l.12-.28c.17-.45.34-.9.49-1.36,0-.11.07-.22.1-.33.12-.37.23-.73.32-1.1,0-.14.08-.28.11-.42.11-.41.2-.82.29-1.24,0-.07,0-.14,0-.21.09-.48.17-1,.23-1.46,0-.13,0-.27,0-.4,0-.38.08-.75.11-1.14l0-.43c0-.51,0-1,0-1.52s0-1.15-.06-1.72c0-.19,0-.37,0-.56,0-.39-.07-.77-.13-1.16a.76.76,0,0,0,0-.15h36s0,.1,0,.15c0,.38-.08.77-.12,1.16,0,.19,0,.37,0,.56,0,.57-.06,1.14-.06,1.72s0,1,0,1.53l0,.44c0,.38.06.76.11,1.14,0,.14,0,.28,0,.41.06.5.14,1,.23,1.47,0,.07,0,.13,0,.2.09.42.18.84.29,1.26,0,.14.07.28.11.42q.15.56.33,1.11c0,.11.06.21.1.32.15.47.32.93.5,1.38l.09.23c.16.39.33.76.5,1.14,0,.11.1.22.16.33.19.4.39.78.59,1.17l.08.13c.24.44.5.87.77,1.3l.1.16c.24.37.49.74.75,1.1.05.06.09.13.14.2A25.57,25.57,0,0,0,131,87.27l.05.06c.35.37.7.72,1.07,1.07l0,0a25.43,25.43,0,0,0,3.75,2.94Zm45.67-35.54a14.06,14.06,0,0,1-14,14,12.73,12.73,0,0,1-1.35-.07,14,14,0,1,1,15.39-14Z"/></svg>